# xmcd CD database file
#
# Track frame offsets:
#	150
#	22587
#	36925
#
# Disc length: 791 seconds
#
# Revision: 0
# Processed by: cddbd v1.5PL3 Copyright (c) Steve Scherf et al.
# Submitted via: CDex 1.51
#
DISCID=15031503
DTITLE=Chara - 月と甘い涙
DYEAR=2000
DGENRE=JPop
TTITLE0=月と甘い涙
TTITLE1=KANA acoustic version
TTITLE2=月と甘い涙 instumental version
EXTD=YEAR: 2000
EXTT0=
EXTT1=
EXTT2=
PLAYORDER=
